<?xml version="1.0" encoding="utf-8"?>
<!-- Generator: Adobe Illustrator 23.1.0, SVG Export Plug-In . SVG Version: 6.00 Build 0)  -->
<svg version="1.1" id="Layer_9" xmlns="http://www.w3.org/2000/svg" xmlns:xlink="http://www.w3.org/1999/xlink" x="0px" y="0px"
	 viewBox="0 0 30 30" style="enable-background:new 0 0 30 30;" xml:space="preserve">
<style type="text/css">
	.icon{fill:#CD9A81;}
</style>
<g>
	<path class="icon" d="M12.1,16.6c0-0.9,0.5-1.8,1.4-2c-0.7-0.3-1-0.9-1-1.7c0-1.1,0.9-2.1,2.6-2.1c1.7,0,2.6,1,2.6,2.1c0,0.7-0.3,1.3-1,1.7
		c0.9,0.3,1.4,1.1,1.4,2c0,1.4-1,2.4-3,2.4S12.1,17.9,12.1,16.6z M16.5,16.4c0-0.7-0.4-1.2-1.4-1.2c-1,0-1.4,0.5-1.4,1.2
		c0,0.7,0.4,1.2,1.4,1.2C16.1,17.6,16.5,17.1,16.5,16.4z M16.1,13c0-0.6-0.4-0.9-1-0.9c-0.6,0-1,0.4-1,0.9s0.4,0.9,1,0.9
		C15.7,13.9,16.1,13.5,16.1,13z"/>
</g>
<path class="icon" d="M15,7c4.4,0,8,3.6,8,8s-3.6,8-8,8s-8-3.6-8-8S10.6,7,15,7 M15,6c-5,0-9,4-9,9s4,9,9,9s9-4,9-9S20,6,15,6L15,6z"/>
</svg>
