<?xml version="1.0" encoding="utf-8"?>
<!-- Generator: Adobe Illustrator 23.1.0, SVG Export Plug-In . SVG Version: 6.00 Build 0)  -->
<svg version="1.1" id="Layer_9" xmlns="http://www.w3.org/2000/svg" xmlns:xlink="http://www.w3.org/1999/xlink" x="0px" y="0px"
	 viewBox="0 0 30 30" style="enable-background:new 0 0 30 30;" xml:space="preserve">
<style type="text/css">
	.icon{fill:#CD9A81;}
</style>
<g>
	<path class="icon" d="M16.7,12.9c-0.3-0.5-0.8-0.8-1.5-0.8c-0.9,0-1.6,0.7-1.7,2.2c0.4-0.5,1-0.9,1.8-0.9c1.3,0,2.5,1.1,2.5,2.7
		c0,1.6-1.3,2.8-2.8,2.8c-2,0-3-1.6-3-3.9c0-2.7,1.3-4.3,3.3-4.3c1.2,0,2.1,0.6,2.5,1.3L16.7,12.9z M15,17.6c0.8,0,1.3-0.6,1.3-1.4
		s-0.4-1.4-1.3-1.4c-0.8,0-1.3,0.6-1.3,1.4S14.2,17.6,15,17.6z"/>
</g>
<path class="icon" d="M15,7c4.4,0,8,3.6,8,8s-3.6,8-8,8s-8-3.6-8-8S10.6,7,15,7 M15,6c-5,0-9,4-9,9s4,9,9,9s9-4,9-9S20,6,15,6L15,6z"/>
</svg>
