<?xml version="1.0" encoding="utf-8"?>
<!-- Generator: Adobe Illustrator 23.1.0, SVG Export Plug-In . SVG Version: 6.00 Build 0)  -->
<svg version="1.1" id="Layer_9" xmlns="http://www.w3.org/2000/svg" xmlns:xlink="http://www.w3.org/1999/xlink" x="0px" y="0px"
	 viewBox="0 0 30 30" style="enable-background:new 0 0 30 30;" xml:space="preserve">
<style type="text/css">
	.icon{fill:#CD9A81;}
</style>
<g>
	<path class="icon" d="M12.4,12.6c0.3-0.9,1-1.9,2.5-1.9c1.7,0,2.6,1.1,2.6,2.4c0,2.4-2.4,3.2-3.2,4.3h3.3v1.3h-5.2v-1.1c0.9-1.9,3.5-2.8,3.5-4.4
		c0-0.7-0.3-1.2-1.1-1.2c-0.6,0-1,0.4-1.2,1.1L12.4,12.6z"/>
</g>
<path class="icon" d="M15,7c4.4,0,8,3.6,8,8s-3.6,8-8,8s-8-3.6-8-8S10.6,7,15,7 M15,6c-5,0-9,4-9,9s4,9,9,9s9-4,9-9S20,6,15,6L15,6z"/>
</svg>
