<?xml version="1.0" encoding="utf-8"?>
<!-- Generator: Adobe Illustrator 23.1.0, SVG Export Plug-In . SVG Version: 6.00 Build 0)  -->
<svg version="1.1" id="Layer_9" xmlns="http://www.w3.org/2000/svg" xmlns:xlink="http://www.w3.org/1999/xlink" x="0px" y="0px"
	 viewBox="0 0 30 30" style="enable-background:new 0 0 30 30;" xml:space="preserve">
<style type="text/css">
	.icon{fill:#CD9A81;}
</style>
<g>
	<path class="icon" d="M18,15.5v1.3h-1.2v1.9h-1.5v-1.9h-3.6v-1.1l3.2-4.9h2v4.6H18z M15.3,13.6c0-0.6,0-1.2,0.1-1.4h0c-0.1,0.3-0.3,0.7-0.6,1.2
		l-1.3,2.1h1.9V13.6z"/>
</g>
<path class="icon" d="M15,7c4.4,0,8,3.6,8,8s-3.6,8-8,8s-8-3.6-8-8S10.6,7,15,7 M15,6c-5,0-9,4-9,9s4,9,9,9s9-4,9-9S20,6,15,6L15,6z"/>
</svg>
