<?xml version="1.0" encoding="utf-8"?>
<!-- Generator: Adobe Illustrator 23.1.0, SVG Export Plug-In . SVG Version: 6.00 Build 0)  -->
<svg version="1.1" id="Layer_9" xmlns="http://www.w3.org/2000/svg" xmlns:xlink="http://www.w3.org/1999/xlink" x="0px" y="0px"
	 viewBox="0 0 30 30" style="enable-background:new 0 0 30 30;" xml:space="preserve">
<style type="text/css">
	.icon{fill:#CD9A81;}
</style>
<g>
	<path class="icon" d="M17.4,12.2h-2.9l-0.1,1.3c0.3-0.1,0.6-0.1,0.9-0.1c1.4,0,2.6,1,2.6,2.8c0,1.6-1.2,2.8-3,2.8c-1.5,0-2.2-0.7-2.6-1.4l1-1
		c0.3,0.5,0.7,1,1.6,1c0.8,0,1.4-0.6,1.4-1.4c0-0.9-0.6-1.4-1.4-1.4c-0.5,0-0.8,0.2-1.1,0.5l-1-0.3l0.3-4h4.3V12.2z"/>
</g>
<path class="icon" d="M15,7c4.4,0,8,3.6,8,8s-3.6,8-8,8s-8-3.6-8-8S10.6,7,15,7 M15,6c-5,0-9,4-9,9s4,9,9,9s9-4,9-9S20,6,15,6L15,6z"/>
</svg>
