<?xml version="1.0" encoding="utf-8"?>
<!-- Generator: Adobe Illustrator 24.0.3, SVG Export Plug-In . SVG Version: 6.00 Build 0)  -->
<svg version="1.1" id="Layer_1" xmlns="http://www.w3.org/2000/svg" xmlns:xlink="http://www.w3.org/1999/xlink" x="0px" y="0px"
	 viewBox="0 0 40 40" style="enable-background:new 0 0 40 40;" xml:space="preserve">
<style type="text/css">
	.st0{fill:#CD9A81;}
</style>
<g>
	<path class="st0" d="M20,28.1c0,0,3.7-3.8,5.5-6.4c0.7-1,1-2.1,1-3.4c0-3.5-2.9-6.4-6.5-6.4c-3.6,0-6.5,2.9-6.5,6.4
		c0,1.2,0.3,2.4,1,3.4C16.3,24.3,20,28.1,20,28.1z M20,16.2c1.2,0,2.1,0.9,2.1,2.1c0,1.2-1,2.1-2.1,2.1c-1.2,0-2.1-0.9-2.1-2.1
		C17.9,17.1,18.8,16.2,20,16.2z"/>
</g>
</svg>
