<?xml version="1.0" encoding="utf-8"?>
<!-- Generator: Adobe Illustrator 24.0.3, SVG Export Plug-In . SVG Version: 6.00 Build 0)  -->
<svg version="1.1" id="Layer_1" xmlns="http://www.w3.org/2000/svg" xmlns:xlink="http://www.w3.org/1999/xlink" x="0px" y="0px"
	 viewBox="0 0 40 40" style="enable-background:new 0 0 40 40;" xml:space="preserve">
<style type="text/css">
	.st0{fill:#CD9A81;}
</style>
<g>
	<path class="st0" d="M11.6,15.8v10.9c0,0.9,0.8,1.7,1.7,1.7h10.9c0.5,0,0.8-0.4,0.8-0.8s-0.4-0.8-0.8-0.8H14.1
		c-0.5,0-0.8-0.4-0.8-0.8V15.8c0-0.5-0.4-0.8-0.8-0.8S11.6,15.3,11.6,15.8z M19.5,20.4l1.4,1.8l2.2-2.7c0.2-0.2,0.5-0.2,0.7,0
		l2.5,3.1c0.2,0.3,0,0.7-0.3,0.7h-8.4c-0.3,0-0.5-0.4-0.3-0.7l1.7-2.2C19,20.2,19.3,20.2,19.5,20.4z M28.4,23.4V13.3
		c0-0.9-0.8-1.7-1.7-1.7H16.6c-0.9,0-1.7,0.8-1.7,1.7v10.1c0,0.9,0.8,1.7,1.7,1.7h10.1C27.7,25,28.4,24.3,28.4,23.4z"/>
</g>
</svg>
