<?xml version="1.0" encoding="utf-8"?>
<!-- Generator: Adobe Illustrator 24.0.3, SVG Export Plug-In . SVG Version: 6.00 Build 0)  -->
<svg version="1.1" id="Logo_negative_rgb" xmlns="http://www.w3.org/2000/svg" xmlns:xlink="http://www.w3.org/1999/xlink" x="0px"
	 y="0px" viewBox="0 0 120 45" style="enable-background:new 0 0 120 45;" xml:space="preserve">
<style type="text/css">
	.st0{display:none;}
	.st1{fill:#FFFFFF;}
</style>
<rect x="-187.9" y="19.4" class="st0" width="280.7" height="80"/>
<g>
	<g>
		<path class="st1" d="M35.9,38.8c0-2.3,1.7-4.1,4.1-4.1c1.6,0,2.8,0.8,3.5,1.9l-0.8,0.6c-0.5-0.9-1.4-1.5-2.7-1.5
			c-1.8,0-2.9,1.4-2.9,3.1c0,1.8,1.2,3.1,3,3.1c1,0,1.9-0.4,2.4-0.9v-1.6h-1.6v-1h2.7v3c-0.9,0.9-2.1,1.5-3.5,1.5
			C37.6,42.9,35.9,41.1,35.9,38.8z"/>
		<path class="st1" d="M45.8,34.8H50v1h-3.1v2.5h2.9v1h-2.9v2.6H50v1h-4.2V34.8z"/>
		<path class="st1" d="M53.4,37.1v5.7h-1.1v-8h0.3l5.5,5.7v-5.7h1.1v8.1h-0.3L53.4,37.1z"/>
		<path class="st1" d="M61.9,34.8h4.2v1H63v2.5h2.9v1H63v2.6h3.1v1h-4.2V34.8z"/>
		<path class="st1" d="M67.8,40.9l0.8-0.5c0.3,0.9,1,1.5,2.1,1.5c1,0,1.6-0.6,1.6-1.4c0-0.6-0.4-1.1-1.3-1.3L70.1,39
			c-1.1-0.3-1.9-1-1.9-2.1c0-1.3,1-2.3,2.5-2.3c1.3,0,2.2,0.7,2.5,1.5l-0.8,0.5c-0.4-0.7-1-1.1-1.7-1.1c-0.8,0-1.4,0.5-1.4,1.2
			c0,0.6,0.4,0.9,1,1.1l0.8,0.2c1.4,0.4,2.2,1.1,2.2,2.3c0,1.4-1.1,2.4-2.7,2.4C69,42.9,68.2,41.9,67.8,40.9z"/>
		<path class="st1" d="M75.5,34.8h1.1v8h-1.1V34.8z"/>
		<path class="st1" d="M78.5,40.9l0.8-0.5c0.3,0.9,1,1.5,2.1,1.5c1,0,1.6-0.6,1.6-1.4c0-0.6-0.4-1.1-1.3-1.3L80.9,39
			c-1.1-0.3-1.9-1-1.9-2.1c0-1.3,1-2.3,2.5-2.3c1.3,0,2.2,0.7,2.5,1.5l-0.8,0.5c-0.4-0.7-1-1.1-1.7-1.1c-0.8,0-1.4,0.5-1.4,1.2
			c0,0.6,0.4,0.9,1,1.1l0.8,0.2c1.4,0.4,2.2,1.1,2.2,2.3c0,1.4-1.1,2.4-2.7,2.4C79.8,42.9,78.9,41.9,78.5,40.9z"/>
	</g>
	<path d="M72.4,9.3c-0.1,0.8-1.4,5.5-4.3,8.9C65,22,61.2,24.1,60,24.8c-1.2-0.7-5-2.8-8.1-6.6c-2.8-3.4-4.1-8.1-4.3-8.9
		c-0.1-0.8,0.3-1.5,1.2-2C50.7,6.3,58.1,4,60,4c1.9,0,9.3,2.2,11.2,3.3C72.1,7.9,72.5,8.6,72.4,9.3z"/>
	<path class="st1" d="M74.4,5.7c-2.1,0-10.6-3.6-14.4-3.6h0c-3.9,0-12.3,3.6-14.4,3.6c-5.2,0-43.9-1.9-43.9-1.9c1.2,1.8,2,2,3,2.3
		c1.9,0.5,26.2,2.4,32.5,3.2c5.5,0.6,6.8,1.3,8.3,3.3c1.9,2.6,3.9,9.2,14.5,14.2h0c10.6-5,12.6-11.6,14.5-14.2
		c1.5-2.1,2.8-2.7,8.3-3.3c6.3-0.7,30.6-2.6,32.5-3.2c1-0.3,1.8-0.5,3-2.3C118.3,3.8,79.6,5.7,74.4,5.7z M72.4,9.3
		c-0.1,0.8-1.4,5.5-4.3,8.9C65,22,61.2,24.1,60,24.8c-1.2-0.7-5-2.8-8.1-6.6c-2.8-3.4-4.1-8.1-4.3-8.9c-0.1-0.8,0.3-1.5,1.2-2
		C50.7,6.3,58.1,4,60,4c1.9,0,9.3,2.2,11.2,3.3C72.1,7.9,72.5,8.6,72.4,9.3z"/>
	<g>
		<path class="st1" d="M68.7,11c-0.4-0.2-0.8-0.3-0.8-0.7c0-0.2,0.2-0.3,0.5-0.3c0.3,0,0.6,0.1,0.9,0.2l0.1-0.5
			c-0.3-0.1-0.6-0.2-1-0.2c-0.8,0-1.2,0.4-1.2,0.8c0,0.5,0.3,0.7,0.8,1c0.4,0.2,0.8,0.3,0.8,0.6c0,0.2-0.2,0.4-0.5,0.4
			c-0.3,0-0.7-0.1-1-0.2l-0.1,0.5c0.1,0,0.6,0.1,1,0.1c0.6,0,1.2-0.3,1.2-0.9C69.5,11.4,69.1,11.2,68.7,11z M56.1,10.1l-0.1-0.4
			h-2.2l-0.1,0.2l0.1,0.1c0.1,0,0.1,0.1,0.1,0.2v2.6h2.1v-0.4h-1.4v-1h1.2V11h-1.2v-0.9H56.1z M64.3,11c-0.4-0.2-0.8-0.3-0.8-0.7
			c0-0.2,0.2-0.3,0.5-0.3c0.3,0,0.6,0.1,0.9,0.2L65,9.8c-0.3-0.1-0.6-0.2-1-0.2c-0.8,0-1.2,0.4-1.2,0.8c0,0.5,0.3,0.7,0.8,1
			c0.4,0.2,0.8,0.3,0.8,0.6c0,0.2-0.2,0.4-0.5,0.4c-0.3,0-0.7-0.1-1-0.2l-0.1,0.5c0.1,0,0.6,0.1,1,0.1c0.6,0,1.2-0.3,1.2-0.9
			C65.1,11.4,64.7,11.2,64.3,11z M65.6,9.9l0.1,0.1c0.1,0.1,0.1,0.1,0.1,0.2v2.6h0.7V9.7h-0.9L65.6,9.9z M62.4,10.1l-0.1-0.4h-2.2
			L60,9.9l0.1,0.1c0.1,0,0.1,0.1,0.1,0.2v2.6h2.1v-0.4h-1.4v-1h1.2V11h-1.2v-0.9H62.4z M58.9,11.8l-1.7-2.1h-0.1h-0.6l-0.1,0.2
			l0.1,0.1c0.1,0.1,0.1,0.1,0.1,0.2v2.6h0.5v-2l1.6,2h0.5V9.7h-0.5V11.8z M52.1,11.3l0.3,0.1c0.1,0,0.1,0.1,0.1,0.2v0.7
			c-0.1,0.1-0.3,0.1-0.5,0.1c-0.6,0-1-0.5-1-1.2c0-0.7,0.4-1.2,1.1-1.2c0.2,0,0.5,0,0.9,0.3l0.1-0.5c-0.5-0.2-0.7-0.2-1.1-0.3
			c-1,0-1.7,0.5-1.7,1.6c0,1,0.7,1.6,1.6,1.6c0.7,0,1.1-0.2,1.2-0.3v-1.4h-1L52.1,11.3z"/>
	</g>
	<path class="st1" d="M41.9,11.9c-2-1.1-11.1-1.7-17.9-2.4C15.8,8.6,5.3,7.7,5.3,7.7c3.7,3.5,5.6,4.5,9.3,5.4
		c3.3,0.7,13.4,1.3,22,1.6c2.3,0.1,2.5,1.3,2.5,1.3l-16.8-0.4c2.6,0.9,7.7,2.4,11.4,3c2.5,0.4,7.3,0.2,9.3,0.1
		c1.9-0.1,2.5,1.2,2.5,1.2L40,20.5c0,0,2,0.6,5.5,1.5c2.7,0.7,6.3,1.2,6.3,1.2C46.4,19.1,45,13.7,41.9,11.9z"/>
	<path class="st1" d="M78.1,11.9c2-1.1,11.1-1.7,17.9-2.4c8.2-0.9,18.7-1.8,18.7-1.8c-3.7,3.5-5.6,4.5-9.3,5.4
		c-3.3,0.7-13.4,1.3-22,1.6c-2.3,0.1-2.5,1.3-2.5,1.3l16.8-0.4c-2.6,0.9-7.7,2.4-11.4,3c-2.5,0.4-7.3,0.2-9.3,0.1
		c-1.9-0.1-2.5,1.2-2.5,1.2l5.4,0.4c0,0-2,0.6-5.5,1.5c-2.7,0.7-6.3,1.2-6.3,1.2C73.6,19.1,75,13.7,78.1,11.9z"/>
</g>
</svg>
