<?xml version="1.0" encoding="utf-8"?>
<!-- Generator: Adobe Illustrator 23.1.0, SVG Export Plug-In . SVG Version: 6.00 Build 0)  -->
<svg version="1.1" id="Layer_9" xmlns="http://www.w3.org/2000/svg" xmlns:xlink="http://www.w3.org/1999/xlink" x="0px" y="0px"
	 viewBox="0 0 30 30" style="enable-background:new 0 0 30 30;" xml:space="preserve">
<style type="text/css">
	.icon{fill:#CD9A81;}
</style>
<g>
	<path class="icon" d="M12.2,17.6l1-1c0.3,0.5,0.7,1,1.6,1c0.8,0,1.4-0.4,1.4-1.2c0-0.7-0.5-1.1-1.5-1.1h-0.6V14h0.6c0.8,0,1.1-0.5,1.1-1
		c0-0.6-0.4-0.9-1-0.9c-0.8,0-1.2,0.4-1.4,0.8L12.5,12c0.5-0.7,1.3-1.2,2.3-1.2c1.6,0,2.6,0.9,2.6,2.2c0,0.6-0.4,1.3-1,1.6
		c0.9,0.3,1.4,1,1.4,2c0,1.5-1.3,2.4-3,2.4C13.3,18.9,12.6,18.2,12.2,17.6z"/>
</g>
<path class="icon" d="M15,7c4.4,0,8,3.6,8,8s-3.6,8-8,8s-8-3.6-8-8S10.6,7,15,7 M15,6c-5,0-9,4-9,9s4,9,9,9s9-4,9-9S20,6,15,6L15,6z"/>
</svg>
