<?xml version="1.0" encoding="utf-8"?>
<!-- Generator: Adobe Illustrator 24.0.3, SVG Export Plug-In . SVG Version: 6.00 Build 0)  -->
<svg version="1.1" id="Layer_1" xmlns="http://www.w3.org/2000/svg" xmlns:xlink="http://www.w3.org/1999/xlink" x="0px" y="0px"
	 viewBox="0 0 40 40" style="enable-background:new 0 0 40 40;" xml:space="preserve">
<style type="text/css">
	.st0{fill:#CD9A81;}
</style>
<g>
	<path class="st0" d="M20,14.4c-5,0-9,2-9,4.5c0,2,2.7,3.7,6.3,4.3v1.8c0,0.4,0.5,0.6,0.8,0.3l2.5-2.5c0.2-0.2,0.2-0.5,0-0.6
		l-2.5-2.5c-0.3-0.3-0.8-0.1-0.8,0.3v1.4c-2.8-0.5-4.5-1.7-4.5-2.5c0-1,2.7-2.7,7.2-2.7s7.2,1.8,7.2,2.7c0,0.6-1.1,1.5-3,2.1
		c-0.4,0.1-0.6,0.5-0.6,0.9c0,0.6-1.4,1.7,1.2,0.9S29,20.6,29,19C29,16.5,25,14.4,20,14.4z"/>
</g>
</svg>
