<?xml version="1.0" encoding="utf-8"?>
<!-- Generator: Adobe Illustrator 24.1.2, SVG Export Plug-In . SVG Version: 6.00 Build 0)  -->
<svg version="1.1" id="Layer_1" xmlns="http://www.w3.org/2000/svg" xmlns:xlink="http://www.w3.org/1999/xlink" x="0px" y="0px"
	 viewBox="0 0 60 60" style="enable-background:new 0 0 60 60;" xml:space="preserve">
<style type="text/css">
	.st0{fill:#FFFFFF;}
</style>
<g>
	<path class="st0" d="M30,7.5c12.4,0,22.5,10.1,22.5,22.5S42.4,52.5,30,52.5S7.5,42.4,7.5,30S17.6,7.5,30,7.5 M30,5
		C16.2,5,5,16.2,5,30s11.2,25,25,25s25-11.2,25-25S43.8,5,30,5L30,5z"/>
</g>
<polygon class="st0" points="36,29.3 30.8,29.3 30.8,24 29.3,24 29.3,29.3 24,29.3 24,30.8 29.3,30.8 29.3,36 30.8,36 30.8,30.8 
	36,30.8 "/>
</svg>
